<?xml version="1.0" encoding="utf-8"?>
<!-- Generator: Adobe Illustrator 16.0.0, SVG Export Plug-In . SVG Version: 6.00 Build 0)  -->
<!DOCTYPE svg PUBLIC "-//W3C//DTD SVG 1.0//EN" "http://www.w3.org/TR/2001/REC-SVG-20010904/DTD/svg10.dtd">
<svg version="1.0" id="Layer_1" xmlns="http://www.w3.org/2000/svg" xmlns:xlink="http://www.w3.org/1999/xlink" x="0px" y="0px"
	 width="100px" height="100px" viewBox="0 0 100 100" enable-background="new 0 0 100 100" xml:space="preserve">
<rect x="30" y="56.667" width="20" height="6.666"/>
<path d="M43.333,23.333h-6.666C33.001,23.333,30,26.334,30,30v13.333C30,46.999,33.001,50,36.667,50h6.666
	C46.999,50,50,46.999,50,43.333V30C50,26.334,46.999,23.333,43.333,23.333z M43.333,43.333h-6.666V30h6.666V43.333z"/>
<path d="M89.993,30c0-7.363-5.973-13.333-13.333-13.333H70v6.667h6.66c3.679,0,6.667,2.985,6.667,6.667l0.006,36.667
	C83.333,68.506,81.839,70,80,70s-3.333-1.494-3.333-3.333V53.333H63.333V16.667c0-3.665-3.001-6.667-6.666-6.667H23.333
	c-3.665,0-6.666,3.001-6.666,6.667v66.667H10V90h60v-6.667h-6.667V60H70v6.667c0,5.521,4.479,10,10,10s10-4.479,10-10L89.993,30z
	 M56.667,83.333H23.333V16.667h33.334V83.333z"/>
</svg>
