<svg xmlns="http://www.w3.org/2000/svg" viewBox="0 0 32 32"><title>33-Notice</title><g id="_33-Notice" data-name="33-Notice"><path d="M25,0H7A7,7,0,0,0,0,7V25a7,7,0,0,0,7,7H25a7,7,0,0,0,7-7V7A7,7,0,0,0,25,0Zm5,25a5,5,0,0,1-5,5H7a5,5,0,0,1-5-5V7A5,5,0,0,1,7,2H25a5,5,0,0,1,5,5Z"/><path d="M16,5a3,3,0,0,0-3,3v8a3,3,0,0,0,6,0V8A3,3,0,0,0,16,5Zm1,11a1,1,0,0,1-2,0V8a1,1,0,0,1,2,0Z"/><path d="M16,21a3,3,0,0,0-2.79,1.89,1,1,0,0,0-.21.61V24h0a3,3,0,1,0,3-3Zm0,4a1,1,0,1,1,1-1A1,1,0,0,1,16,25Z"/></g></svg>